<svg width="38" height="41" viewBox="0 0 38 41" fill="none" xmlns="http://www.w3.org/2000/svg">
<path d="M33.0505 5.09936C32.4655 5.10804 31.8849 5.20278 31.3277 5.38053C31.0455 3.54554 29.0258 2.1545 26.4713 2.1545C25.697 2.12899 24.925 2.25467 24.1991 2.52446C23.7374 1.71435 23.0572 1.0493 22.2357 0.604665C21.4141 0.16003 20.4839 -0.046406 19.5506 0.00874961C18.7354 -0.0273963 17.9233 0.131006 17.1819 0.470773C16.4405 0.81054 15.7913 1.32184 15.2883 1.96212C14.4391 1.46057 13.4685 1.19962 12.4814 1.20741C11.2986 1.12942 10.1323 1.51652 9.23269 2.28564C8.33309 3.05476 7.77191 4.14462 7.66956 5.32133V6.66798C6.09532 7.25991 1.56566 9.33167 0.377559 13.8303C-0.810547 18.329 0.882504 25.669 4.37257 31.2627C6.71874 34.9073 9.68377 38.1172 13.1348 40.7484C13.364 40.913 13.6395 41.0011 13.922 41H29.2782C29.5739 40.9968 29.8605 40.8981 30.0951 40.7188C32.7619 38.2699 34.6906 35.1285 35.6643 31.6475C37.3484 27.064 38.1349 22.2013 37.9811 17.3227V9.18368C37.8607 7.99475 37.2764 6.90051 36.3542 6.1366C35.432 5.37268 34.2456 5.0002 33.0505 5.09936ZM35.3079 17.3227C35.4699 21.9347 34.7284 26.5339 33.1247 30.8632C32.2844 33.6639 30.7878 36.2253 28.7584 38.3363H14.3081C11.2872 35.9539 8.67844 33.0945 6.58541 29.8717C3.06565 24.1595 2.13002 17.6927 2.90228 14.4963C3.30718 13.3885 3.94063 12.3777 4.76175 11.5289C5.58288 10.6801 6.57345 10.0123 7.66956 9.56844V20.8891C7.66956 21.2424 7.81038 21.5811 8.06105 21.8309C8.31171 22.0807 8.65168 22.221 9.00618 22.221C9.36067 22.221 9.70065 22.0807 9.95131 21.8309C10.202 21.5811 10.3428 21.2424 10.3428 20.8891V5.32133C10.3428 4.62581 11.219 3.8415 12.5111 3.8415C13.8032 3.8415 14.7239 4.61102 14.7239 5.32133V13.7859H17.3972V3.72312C17.3972 3.30877 18.2586 2.67244 19.5655 2.67244C20.8724 2.67244 21.8377 3.38276 21.8377 3.78231V13.9783H24.511V5.48411L24.7634 5.30653C25.2875 4.97899 25.8975 4.81416 26.5159 4.83299C27.8971 4.83299 28.7436 5.48411 28.7436 5.83927V15.4582H31.4317V8.25139C31.9214 7.9196 32.503 7.74883 33.095 7.76305C34.3722 7.76305 35.3524 8.51776 35.3524 9.15409L35.3079 17.3227Z" fill="white"/>
</svg>
